# File created by Blade
# Date/Time:  Wed Jan 21 14:43:55 2015
# Frame Rate: 120.000 fps
#------------------------------------------------------
:FULLY-SPECIFIED
:DEGREES
740
root 14.629743 35.164570 -21.069933 -171.282338 -15.106297 168.318060
Spine -7.827172 -9.525903 50.630561
Head -6.130058 5.985455 27.798515
LeftShoulder -11.035399 -9.221182 12.331327
LeftArm -72.412440 70.502955 -138.886541
LeftForeArm 36.045299 -0.000000 83.743263
LeftHand 5.701197 -0.000000 22.639097
LeftHandThumb1 -26.253704 0.000000 33.147579
RightShoulder -14.170864 -29.975253 -1.841403
RightArm 14.371305 -40.815507 35.380030
RightForeArm -53.927198 -0.000000 128.341861
RightHand -0.699118 -0.000000 -14.382952
RightHandThumb1 -24.326973 -0.000000 -32.862282
LeftUpLeg 1.934343 1.487366 -15.003103
LeftLeg -5.352116 -0.000000 0.000000
LeftFoot -16.353314 19.513426 -12.840210
LeftToeBase 24.675837 -0.000000 -0.000000
RightUpLeg 8.307249 -20.578127 -21.336580
RightLeg -6.244866 -0.000000 0.000000
RightFoot -21.863352 -26.249210 18.063739
RightToeBase 26.262444 -0.000000 -0.000000
741
root 14.629875 35.161668 -21.084350 -171.235187 -15.075949 168.407190
Spine -7.936145 -9.538572 50.505966
Head -5.931309 6.108155 27.554384
LeftShoulder -11.109491 -9.128389 12.205232
LeftArm -72.415830 70.510993 -138.679749
LeftForeArm 36.055595 0.000000 83.914067
LeftHand 5.595188 0.000000 22.665812
LeftHandThumb1 -26.253704 0.000000 33.147579
RightShoulder -14.115064 -30.061237 -1.888640
RightArm 14.286588 -40.722565 35.636430
RightForeArm -53.875261 0.000000 128.200433
RightHand -0.540495 0.000000 -14.640995
RightHandThumb1 -24.326973 -0.000000 -32.862282
LeftUpLeg 1.895675 1.467390 -14.918240
LeftLeg -5.371665 -0.000000 0.000000
LeftFoot -16.410541 19.561270 -12.768890
LeftToeBase 24.633506 -0.000000 -0.000000
RightUpLeg 8.242886 -20.546551 -21.215090
RightLeg -6.258705 -0.000000 0.000000
RightFoot -21.859211 -26.282560 18.080678
RightToeBase 26.277133 -0.000000 -0.000000
742
root 14.634521 35.160185 -21.095086 -171.206344 -15.019081 168.500255
Spine -7.937614 -9.538327 50.333802
Head -5.951302 6.213211 27.322505
LeftShoulder -11.218924 -9.141539 12.061678
LeftArm -72.506522 70.489052 -138.489072
LeftForeArm 36.066541 -0.000000 84.088595
LeftHand 5.850380 -0.000000 22.612129
LeftHandThumb1 -26.253704 0.000000 33.147579
RightShoulder -14.142994 -30.009301 -1.821667
RightArm 14.128831 -40.713459 35.798829
RightForeArm -54.018075 -0.000000 128.061183
RightHand -0.364792 -0.000000 -14.572117
RightHandThumb1 -24.326973 -0.000000 -32.862282
LeftUpLeg 1.862107 1.449652 -14.829010
LeftLeg -5.395333 -0.000000 0.000000
LeftFoot -16.485414 19.627404 -12.728234
LeftToeBase 24.712516 -0.000000 -0.000000
RightUpLeg 8.156289 -20.494961 -21.085818
RightLeg -6.240176 -0.000000 0.000000
RightFoot -21.859133 -26.332600 18.067213
RightToeBase 26.299112 -0.000000 -0.000000
743
root 14.641137 35.159394 -21.103278 -171.171112 -14.955151 168.616208
Spine -7.935404 -9.550433 50.153098
Head -5.966668 6.400827 27.131952
LeftShoulder -11.338672 -9.079993 11.933199
LeftArm -72.496199 70.532424 -138.245633
LeftForeArm 36.205363 -0.000000 84.291613
LeftHand 5.887187 -0.000000 22.223899
LeftHandThumb1 -26.253704 0.000000 33.147579
RightShoulder -14.183909 -30.013250 -1.738887
RightArm 14.104292 -40.665839 35.846453
RightForeArm -54.058007 -0.000000 127.929787
RightHand -0.280268 -0.000000 -14.673815
RightHandThumb1 -24.326973 -0.000000 -32.862282
LeftUpLeg 1.811787 1.396853 -14.719319
LeftLeg -5.418795 -0.000000 0.000000
LeftFoot -16.560124 19.738986 -12.689939
LeftToeBase 24.703113 -0.000000 -0.000000
RightUpLeg 8.040056 -20.447825 -20.925118
RightLeg -6.204837 -0.000000 0.000000
RightFoot -21.860572 -26.334907 18.195305
RightToeBase 26.052035 -0.000000 -0.000000
744
root 14.649295 35.158327 -21.116501 -171.141972 -14.858112 168.731598
Spine -7.938909 -9.552973 49.926062
Head -5.920715 6.451394 26.924593
LeftShoulder -11.438294 -9.005955 11.783885
LeftArm -72.520538 70.581394 -138.007167
LeftForeArm 35.949753 0.000000 84.509717
LeftHand 5.523810 -0.000000 22.447838
LeftHandThumb1 -26.253704 0.000000 33.147579
RightShoulder -14.204939 -30.029576 -1.657073
RightArm 14.064275 -40.632200 35.907317
RightForeArm -54.004138 -0.000000 127.792701
RightHand -0.220010 -0.000000 -14.831676
RightHandThumb1 -24.326973 -0.000000 -32.862282
LeftUpLeg 1.782471 1.388668 -14.610367
LeftLeg -5.466075 -0.000000 0.000000
LeftFoot -16.630472 19.840181 -12.650995
LeftToeBase 24.673536 -0.000000 -0.000000
RightUpLeg 7.931834 -20.381274 -20.766326
RightLeg -6.198845 -0.000000 0.000000
RightFoot -21.836599 -26.375364 18.115579
RightToeBase 26.139098 -0.000000 -0.000000
745
root 14.659519 35.157178 -21.127861 -171.125077 -14.756697 168.872128
Spine -7.927248 -9.593250 49.709388
Head -5.850371 6.582714 26.733898
LeftShoulder -11.591357 -8.930545 11.643240
LeftArm -72.627438 70.684028 -137.867301
LeftForeArm 35.893946 -0.000000 84.695728
LeftHand 5.522006 0.000000 22.424847
LeftHandThumb1 -26.253704 0.000000 33.147579
RightShoulder -14.205332 -30.118376 -1.614657
RightArm 14.174615 -40.562620 35.929279
RightForeArm -53.926903 -0.000000 127.630437
RightHand -0.488680 -0.000000 -15.598622
RightHandThumb1 -24.326973 -0.000000 -32.862282
LeftUpLeg 1.757016 1.372394 -14.478189
LeftLeg -5.517052 -0.000000 0.000000
LeftFoot -16.710856 19.960945 -12.635340
LeftToeBase 24.656217 -0.000000 -0.000000
RightUpLeg 7.812588 -20.313128 -20.581367
RightLeg -6.170743 -0.000000 0.000000
RightFoot -21.822623 -26.398852 18.109378
RightToeBase 26.156831 -0.000000 -0.000000
